<svg width="416" height="416" viewBox="0 0 416 416" fill="none" xmlns="http://www.w3.org/2000/svg">
<path fill-rule="evenodd" clip-rule="evenodd" d="M13.0437 0.408612C8.16146 1.35079 1.27861 9.41311 0.459199 15.1478C0.0583595 17.9577 -0.113089 89.4133 0.0784623 173.938L0.427273 327.618L3.26626 331.598C9.74472 340.679 -7.35303 339.979 207.942 339.979C394.888 339.979 400.219 339.917 405.085 337.709C417.636 332.013 419.269 314.578 408.053 306.024L403.816 302.793L220.745 302.483L37.6734 302.172V169.786V37.3983H207.917H378.161L378.48 144.771L378.801 252.144L382.032 256.38C390.588 267.594 408.028 265.961 413.725 253.413C415.915 248.592 415.995 244.27 415.995 131.971C415.995 1.66052 416.494 9.33154 407.613 2.99872L403.632 0.16036L209.715 0.0184975C103.061 -0.0595249 14.5583 0.116619 13.0437 0.408612ZM202.061 113.925C200.307 114.254 191.797 121.722 180.766 132.615L162.395 150.758L125.16 151.117C79.8361 151.555 76.2226 152.934 76.1635 169.821C76.1043 187.074 80.8352 188.663 132.267 188.663C180.449 188.663 177.452 189.388 192.543 174.068L202.567 163.89L216.374 191.339C238.603 235.528 242.977 236.673 273.613 206.329L291.398 188.715H307.826C331.866 188.715 339.19 184.283 339.19 169.734C339.19 154.517 332.162 150.885 302.715 150.885C276.307 150.885 275.913 151.023 261.718 165.12L251.054 175.713L239.252 151.91C220.416 113.918 217.581 111.023 202.061 113.925ZM126.556 378.691C111.091 381.724 109.588 406.682 124.464 413.437C132.086 416.897 283.934 416.834 291.573 413.367C304.124 407.671 305.757 390.236 294.541 381.682L290.305 378.451L209.807 378.301C165.534 378.218 128.07 378.393 126.556 378.691Z" fill="white"/>
</svg>
