<svg width="417" height="416" viewBox="0 0 417 416" fill="none" xmlns="http://www.w3.org/2000/svg">
<path fill-rule="evenodd" clip-rule="evenodd" d="M194.616 0.392173C82.5882 12.5692 25.8332 140.759 93.0452 229.808C105.168 245.869 161.29 301.351 166.366 302.291C174.916 303.876 182.708 299.196 185.163 291.001C187.764 282.321 187.271 281.652 152.198 246.264C114.485 208.211 109.282 201.245 101.715 178.665C77.8952 107.592 132.331 31.7642 207.175 31.7642C291.326 31.7642 345.488 118.99 307.994 194.13C300.73 208.686 295.669 214.395 244.041 266.264C199.539 310.974 193.193 317.726 192.586 321.014C190.369 333.018 199.833 342.489 211.866 340.307C216.177 339.525 308.533 248.582 320.572 233.264C387.832 147.683 341.098 22.8352 234.116 2.30318C225.692 0.686177 202.316 -0.444827 194.616 0.392173ZM83.1162 270.756C7.88921 291.11 -20.5358 331.713 15.5522 367.264C81.7872 432.515 341.234 431.257 402.853 365.386C435.987 329.965 405.114 289.021 331.129 270.267C317.182 266.732 308.745 270 306.058 279.979C303.044 291.172 308.284 296.579 327.616 302.229C368.452 314.161 389.499 329.318 382.026 341.41C361.274 374.987 224.201 394.046 124.394 377.23C72.4972 368.486 32.1162 350.078 32.1162 335.165C32.1162 325.675 58.8852 310.384 90.8002 301.643C104.221 297.968 108.113 295.202 110.065 287.954C112.292 279.682 107.2 271.19 98.6162 268.861C93.8382 267.564 95.7972 267.325 83.1162 270.756Z" fill="white"/>
</svg>
