<svg width="256" height="417" viewBox="0 0 256 417" fill="none" xmlns="http://www.w3.org/2000/svg">
<path fill-rule="evenodd" clip-rule="evenodd" d="M114.345 1.41302C89.6617 6.65102 70.7727 26.031 65.2697 51.764C63.2237 61.33 63.2237 226.198 65.2697 235.764C79.0627 300.26 167.457 305.791 188.563 243.479L191.345 235.264V143.764V52.264L188.563 44.049C177.988 12.83 146.308 -5.37098 114.345 1.41302ZM141.424 34.802C147.645 37.814 153.779 43.954 156.897 50.29L159.345 55.264L159.617 141.684C159.919 237.988 160.18 233.942 153.079 243.264C137.928 263.153 104.513 257.201 97.3287 233.332C95.2087 226.287 95.0967 61.566 97.2077 54.552C102.751 36.135 124.297 26.511 141.424 34.802ZM8.84469 161.949C-0.119308 166.56 -0.361307 167.812 0.161693 206.764C0.914693 262.827 9.87269 287.58 39.6697 315.934C61.1437 336.369 73.1217 339.649 82.1427 327.566C87.9917 319.733 84.7247 310.654 73.1287 302.514C58.6777 292.37 45.5047 276.117 39.2407 260.7C32.9737 245.278 32.5667 242.152 31.9317 204.585C31.3737 171.607 31.2437 169.77 29.2827 167.146C23.9057 159.952 16.4267 158.05 8.84469 161.949ZM233.846 160.887C230.952 162.041 227.171 165.385 225.503 168.264C224.72 169.616 224.155 181.444 223.758 204.764C223.235 235.562 222.947 240.085 221.076 246.91C209.526 289.046 176.381 316.194 132.166 319.733C113.026 321.265 112.437 322.355 112.036 356.955L111.727 383.646L85.0357 383.955C59.3017 384.253 58.2327 384.344 55.2267 386.488C44.9417 393.824 46.0447 408.772 57.2457 413.859C63.6917 416.786 192.114 416.733 198.574 413.8C209.188 408.982 210.57 394.235 201.086 386.997L197.505 384.264L170.675 383.954L143.845 383.645V367.223C143.845 350.998 143.872 350.797 146.095 350.339C147.333 350.084 151.945 349.132 156.345 348.222C203.737 338.429 241.913 299.374 253.075 249.264C256.462 234.062 256.891 175.039 253.661 168.764C249.983 161.617 240.984 158.041 233.846 160.887Z" fill="white"/>
</svg>
