<svg width="416" height="412" viewBox="0 0 416 412" fill="none" xmlns="http://www.w3.org/2000/svg">
<path fill-rule="evenodd" clip-rule="evenodd" d="M172.501 1.24594C163.715 4.00994 159.314 15.0419 163.488 23.8379C165.474 28.0219 169.143 30.3229 179.165 33.6659C258.553 60.1529 282.022 161.12 222.421 219.755C178.676 262.791 108.766 262.67 65.2962 219.484C14.6832 169.2 23.2632 84.9809 82.9702 46.0059C95.5702 37.7809 99.2972 28.6459 93.3202 20.6399C83.4682 7.44494 67.9782 13.0319 41.8522 39.2049C-33.2658 114.458 -2.89977 242.543 98.0802 276.375C141.194 290.819 190.205 283.679 226.453 257.672L233.659 252.502L245.248 264.128L256.836 275.755L254.859 282.094C251.016 294.416 252.771 309.436 259.401 320.969C262.796 326.874 334.247 398.949 341.382 403.666C382.417 430.792 431.847 386.729 410.27 342.255C404.605 330.578 333.276 259.213 321.882 253.823C308.94 247.701 296.262 246.839 284.557 251.287L279.403 253.245L268.143 242.016C254.938 228.849 255.573 231.068 262.266 221.473C311.423 151.011 286.583 51.7659 209.939 12.4049C192.277 3.33494 178.713 -0.708057 172.501 1.24594ZM307.282 281.774C312.887 284.435 381.429 354.113 382.874 358.622C387.244 372.248 374.114 384.294 361.382 378.341C354.352 375.053 286.315 305.79 284.924 300.505C281.424 287.208 294.915 275.906 307.282 281.774Z" fill="white"/>
</svg>
