<svg width="416" height="416" viewBox="0 0 416 416" fill="none" xmlns="http://www.w3.org/2000/svg">
<path fill-rule="evenodd" clip-rule="evenodd" d="M67.254 1.13285C33.7271 6.69769 6.53638 34.1619 1.04174 68.0099C-0.325661 76.4347 -0.355716 146.955 1.00367 157.776C13.3183 255.812 140.019 290.757 200.399 212.77C220.394 186.944 224.37 170.227 224.358 112.035C224.349 64.966 223.013 56.3453 213.127 39.5108C193.408 5.93671 138.679 -13.0997 129.659 10.4796C125.604 21.0763 133.553 31.919 145.428 31.989C166.42 32.113 186.892 49.2795 191.295 70.4479C193.249 79.8426 192.117 156.951 189.915 164.507C166.957 243.261 57.592 243.261 34.4394 164.507C32.1954 156.875 31.0684 80.7246 33.0479 70.5099C35.6455 57.1052 46.1379 43.5296 58.8522 37.1238C64.3469 34.3549 68.5773 33.3389 82.6169 31.417C97.4309 29.388 100.607 9.02862 87.1629 2.26182C82.3615 -0.155115 76.8859 -0.466108 67.254 1.13285ZM307.011 1.66083C287.78 5.73472 270.673 19.4913 262.371 37.5568C256.213 50.9584 256.422 45.2226 256.422 200.254C256.422 354.185 256.692 346.618 250.804 358.215C240.963 377.601 226.444 384.001 192.309 384.001C162.615 384.001 153.581 381.328 141.877 369.079C130.583 357.261 128.205 349.009 128.175 321.543C128.156 304.165 127.905 300.959 126.289 297.404C121.132 286.071 105.718 285.14 98.5269 295.727C95.74 299.83 95.7209 345.111 98.5018 354.993C106.937 384.974 127.129 405.136 157.257 413.66C166.934 416.398 217.685 416.398 227.362 413.66C256.971 405.283 276.611 386.072 285.761 356.541L287.94 349.502L288.46 202.506L288.979 55.5103L291.153 50.8144C302.508 26.2831 337.6 26.1171 349.638 50.5364L352.09 55.5103L352.354 189.132L352.619 322.754L346.962 325.517C302.716 347.126 319.2 416 368.619 416C417.916 416 434.539 347.006 390.407 325.567L384.647 322.768V190.846C384.647 74.7957 384.458 57.9982 383.071 51.2184C375.979 16.5264 341.839 -5.71796 307.011 1.66083ZM374.959 353.366C385.251 357.659 387.761 371.128 379.757 379.119C368.502 390.354 350.058 380.291 353.02 364.53C354.79 355.117 365.765 349.531 374.959 353.366Z" fill="white"/>
</svg>
